<svg xmlns="http://www.w3.org/2000/svg" viewBox="0 0 64 64">
  <g transform="translate(-3.556 -3.556) scale(.71111)">
    <path d="M95 50c0 24.862-20.149 45-45 45-13.916 0-26.359-6.311-34.605-16.234A44.792 44.792 0 015 50C5 25.149 25.149 5 50 5a44.742 44.742 0 0128.372 10.091C88.52 23.326 95 35.904 95 50z" fill="#f4c85b"/>
    <circle transform="rotate(-9.25 50.024 50.09)" cy="50.006" cx="50.004" r="34.572" fill="#efb250"/>
    <path d="M67.034 52.207c-.693-.916-1.574-1.679-2.619-2.29a11.199 11.199 0 00-2.642-1.127c1.773-.869 3.088-2.02 3.969-3.44.869-1.421 1.304-2.936 1.304-4.557 0-1.726-.494-3.382-1.48-4.967-.987-1.586-2.349-2.76-4.087-3.523-1.315-.587-2.96-.94-4.932-1.08v-4.698h-4.956v4.627h-2.5v-4.627h-4.945v4.627h-2.102v-.012h-5.53v4.44h3.898v28.817h-3.899v4.439h3.899v.012h3.734v4.638h4.944v-4.638h2.501v4.638h4.956v-4.674c1.644-.082 3.089-.282 4.322-.599 1.644-.41 3.03-1.033 4.121-1.855 1.093-.822 2.02-1.996 2.76-3.511.752-1.515 1.127-3.16 1.127-4.92 0-2.197-.622-4.099-1.843-5.72zM45.403 35.603h7.527c2.713 0 4.627.176 5.73.528 1.116.352 1.974.998 2.573 1.95.599.95.904 2.054.904 3.311 0 1.315-.317 2.407-.963 3.288-.646.87-1.597 1.503-2.865 1.879-.963.294-2.549.434-4.756.434h-8.15zm17.556 25.494c-.493.916-1.127 1.62-1.903 2.09-.775.482-1.726.822-2.877 1.034-.657.117-1.785.176-3.393.176h-9.383V51.444h8.713c2.396 0 4.24.212 5.52.623.763.258 1.42.622 1.996 1.092.376.317.704.68.998 1.104.716 1.033 1.08 2.254 1.08 3.663 0 1.198-.258 2.255-.751 3.171z" fill="#cc903a"/>
    <path d="M65.93 52.207c-.693-.916-1.574-1.679-2.619-2.29a11.199 11.199 0 00-2.642-1.127c1.773-.869 3.089-2.02 3.97-3.44.868-1.421 1.303-2.936 1.303-4.557 0-1.726-.493-3.382-1.48-4.967-.986-1.586-2.348-2.76-4.086-3.523-1.316-.587-2.96-.94-4.933-1.08v-4.698h-4.955v4.627h-2.502v-4.627h-4.943v4.627H40.94v-.012h-5.53v4.44h3.898v28.817H35.41v4.439h3.9v.012h3.734v4.638h4.943v-4.638h2.502v4.638h4.955v-4.674c1.644-.082 3.089-.282 4.322-.599 1.644-.41 3.03-1.033 4.122-1.855 1.092-.822 2.02-1.996 2.76-3.511.75-1.515 1.127-3.16 1.127-4.92 0-2.197-.623-4.099-1.844-5.72zM44.3 35.603h7.526c2.713 0 4.627.176 5.731.528 1.116.352 1.973.998 2.572 1.95.599.95.904 2.054.904 3.311 0 1.315-.317 2.407-.963 3.288-.646.87-1.597 1.503-2.865 1.879-.963.294-2.548.434-4.756.434h-8.15zm17.555 25.494c-.493.916-1.127 1.62-1.902 2.09-.775.482-1.726.822-2.877 1.034-.658.117-1.785.176-3.394.176h-9.383V51.444h8.714c2.395 0 4.239.212 5.519.623.763.258 1.42.622 1.996 1.092.376.317.705.68.998 1.104.717 1.033 1.08 2.254 1.08 3.663 0 1.198-.258 2.255-.75 3.171z" fill="#fcd462"/>
  </g>
</svg>
