<svg xmlns="http://www.w3.org/2000/svg" viewBox="0 0 64 64">
  <path d="M52.121 10H11.88a27.049 27.049 0 00-4.471 14.905v3.146L8.414 48.35l4.832.009H53.04l2.548-.012 1.006-20.296v-3.146A27.049 27.049 0 0052.12 10z" fill="#8c421c"/>
  <path d="M19.704 10a17.027 17.027 0 00-3.353 10.154v28.205h4.47V20.154c0-3.662 1.178-7.225 3.354-10.154z" fill="#fdb62f"/>
  <path d="M44.297 10h-4.472a17.027 17.027 0 013.354 10.154v28.205h4.471V20.154c0-3.662-1.177-7.225-3.353-10.154z" fill="#fdb62f"/>
  <path d="M16.35 32.564h4.472v2.257H16.35z" fill="#db9e29"/>
  <path d="M43.179 32.564h4.471v2.257h-4.471z" fill="#db9e29"/>
  <path d="M8.414 48.35l.112 2.265L28.646 54 32 51.744 35.354 54l20.12-3.385.113-2.26z" fill="#783918"/>
  <path d="M63.406 19.883C62.706 14.238 57.951 10 52.314 10h-.193a27.049 27.049 0 014.472 14.905v3.146l-1.118 22.564V54h6.707l1.53-17.748a78.474 78.474 0 00-.306-16.369z" fill="#fdb62f"/>
  <path d="M11.88 10h-.193C6.05 10 1.294 14.236.595 19.883a78.418 78.418 0 00-.306 16.37L1.82 54h6.707v-3.385L7.408 28.051v-3.146A27.049 27.049 0 0111.879 10z" fill="#fdb62f"/>
  <path d="M8.358 47.23H1.235L1.82 54h6.707v-3.385z" fill="#edab2c"/>
  <path d="M55.643 47.23l-.168 3.385V54h6.707l.583-6.77z" fill="#edab2c"/>
  <path d="M4.054 24.667a1.123 1.123 0 01-1.118-1.129c0-.622.501-1.128 1.118-1.128.617 0 1.118.506 1.118 1.128 0 .623-.5 1.129-1.118 1.129z" fill="#30160a"/>
  <path d="M4.054 33.692a1.123 1.123 0 01-1.118-1.128c0-.623.501-1.128 1.118-1.128.617 0 1.118.505 1.118 1.128 0 .623-.5 1.128-1.118 1.128z" fill="#30160a"/>
  <path d="M4.054 42.718a1.123 1.123 0 01-1.118-1.128c0-.623.501-1.128 1.118-1.128.617 0 1.118.505 1.118 1.128 0 .623-.5 1.128-1.118 1.128z" fill="#30160a"/>
  <path d="M59.946 24.667a1.123 1.123 0 01-1.118-1.129c0-.622.501-1.128 1.118-1.128.617 0 1.118.506 1.118 1.128 0 .623-.5 1.129-1.118 1.129z" fill="#30160a"/>
  <path d="M59.946 33.692a1.123 1.123 0 01-1.118-1.128c0-.623.501-1.128 1.118-1.128.617 0 1.118.505 1.118 1.128 0 .623-.5 1.128-1.118 1.128z" fill="#30160a"/>
  <path d="M59.946 42.718a1.123 1.123 0 01-1.118-1.128c0-.623.501-1.128 1.118-1.128.617 0 1.118.505 1.118 1.128 0 .623-.5 1.128-1.118 1.128z" fill="#30160a"/>
  <path d="M.014 26.923h63.973v2.256H.014z" opacity=".16"/>
  <path d="M34.63 34.279l-.877-2.076a4.511 4.511 0 002.719-4.152c0-2.489-2.006-4.513-4.472-4.513-2.466 0-4.471 2.024-4.471 4.513a4.51 4.51 0 002.72 4.152l-.877 2.076a6.764 6.764 0 01-4.079-6.228c0-3.733 3.008-6.769 6.707-6.769 3.7 0 6.707 3.036 6.707 6.77 0 2.716-1.6 5.16-4.078 6.227z" fill="#30160a"/>
  <path d="M36.472 34.82h-1.118v-1.128c0-1.866-1.505-3.384-3.354-3.384-1.849 0-3.353 1.518-3.353 3.384v1.129h-1.118c-.617 0-1.118.505-1.118 1.128v9.025c0 .623.5 1.129 1.118 1.129h8.943c.617 0 1.117-.506 1.117-1.129V35.95c0-.623-.5-1.128-1.117-1.128zm-5.59-1.128c0-.621.502-1.128 1.118-1.128.616 0 1.118.507 1.118 1.128v1.129h-2.236z" fill="#fdb62f"/>
  <path d="M33.118 39.333c0-.622-.5-1.128-1.118-1.128-.617 0-1.118.506-1.118 1.128 0 .399.216.731.525.932v3.566h1.188v-3.566c.307-.202.523-.535.523-.932z" fill="#30160a"/>
</svg>
